REM DIRINDEX 1\2\4,1\2\5,1\2\6,1\3\7,1\3\8
REM DIRNAME folder01,folder02,folder03,folder04,folder05,folder06,folder07,folder08
TITLE ""
FILE "028_Communication Stage 4.mp3" MP3
  TRACK 01 AUDIO
    TITLE "0:"
    INDEX 01 00:00:00
  TRACK 02 AUDIO
    TITLE "6:cjc128_1699"
    INDEX 01 00:00:09
  TRACK 03 AUDIO
    TITLE "0:"
    INDEX 01 00:02:40
  TRACK 04 AUDIO
    TITLE "6:cjc128_1700"
    INDEX 01 00:03:19
  TRACK 05 AUDIO
    TITLE "0:"
    INDEX 01 00:05:14
  TRACK 06 AUDIO
    TITLE "4:cjc128_1701"
    INDEX 01 00:06:02
  TRACK 07 AUDIO
    TITLE "0:"
    INDEX 01 00:09:36
  TRACK 08 AUDIO
    TITLE "5:cjc128_1702"
    INDEX 01 00:13:32
  TRACK 09 AUDIO
    TITLE "0:"
    INDEX 01 00:16:51
  TRACK 10 AUDIO
    TITLE "6:cjc128_1703"
    INDEX 01 00:17:27
  TRACK 11 AUDIO
    TITLE "0:"
    INDEX 01 00:19:34
  TRACK 12 AUDIO
    TITLE "4:cjc128_1704"
    INDEX 01 00:20:18
  TRACK 13 AUDIO
    TITLE "0:"
    INDEX 01 00:23:40
  TRACK 14 AUDIO
    TITLE "5:cjc128_1705"
    INDEX 01 00:27:20
  TRACK 15 AUDIO
    TITLE "0:"
    INDEX 01 00:30:14
  TRACK 16 AUDIO
    TITLE "6:cjc128_1706"
    INDEX 01 00:31:00
  TRACK 17 AUDIO
    TITLE "0:"
    INDEX 01 00:32:60
  TRACK 18 AUDIO
    TITLE "4:cjc128_1707"
    INDEX 01 00:33:44
  TRACK 19 AUDIO
    TITLE "0:"
    INDEX 01 00:35:10
  TRACK 20 AUDIO
    TITLE "5:cjc128_1708"
    INDEX 01 00:37:24
  TRACK 21 AUDIO
    TITLE "0:"
    INDEX 01 00:38:49
  TRACK 22 AUDIO
    TITLE "6:cjc128_1709"
    INDEX 01 00:39:33
  TRACK 23 AUDIO
    TITLE "0:"
    INDEX 01 00:41:34
  TRACK 24 AUDIO
    TITLE "4:cjc128_1710"
    INDEX 01 00:42:31
  TRACK 25 AUDIO
    TITLE "0:"
    INDEX 01 00:44:67
  TRACK 26 AUDIO
    TITLE "5:cjc128_1711"
    INDEX 01 00:48:04
  TRACK 27 AUDIO
    TITLE "0:"
    INDEX 01 00:50:19
  TRACK 28 AUDIO
    TITLE "6:cjc128_1712"
    INDEX 01 00:51:09
  TRACK 29 AUDIO
    TITLE "0:"
    INDEX 01 00:53:17
  TRACK 30 AUDIO
    TITLE "4:cjc128_1713"
    INDEX 01 00:54:09
  TRACK 31 AUDIO
    TITLE "0:"
    INDEX 01 00:56:31
  TRACK 32 AUDIO
    TITLE "5:cjc128_1714"
    INDEX 01 01:00:55
  TRACK 33 AUDIO
    TITLE "0:"
    INDEX 01 01:04:13
  TRACK 34 AUDIO
    TITLE "6:cjc128_1715"
    INDEX 01 01:04:68
  TRACK 35 AUDIO
    TITLE "0:"
    INDEX 01 01:06:69
  TRACK 36 AUDIO
    TITLE "4:cjc128_1716"
    INDEX 01 01:07:64
  TRACK 37 AUDIO
    TITLE "0:"
    INDEX 01 01:10:04
  TRACK 38 AUDIO
    TITLE "5:cjc128_1717"
    INDEX 01 01:13:02
  TRACK 39 AUDIO
    TITLE "0:"
    INDEX 01 01:15:44
  TRACK 40 AUDIO
    TITLE "6:cjc128_1718"
    INDEX 01 01:16:26
  TRACK 41 AUDIO
    TITLE "0:"
    INDEX 01 01:18:31
  TRACK 42 AUDIO
    TITLE "4:cjc128_1719"
    INDEX 01 01:19:23
  TRACK 43 AUDIO
    TITLE "0:"
    INDEX 01 01:22:58
  TRACK 44 AUDIO
    TITLE "5:cjc128_1720"
    INDEX 01 01:27:42
  TRACK 45 AUDIO
    TITLE "0:"
    INDEX 01 01:31:39
  TRACK 46 AUDIO
    TITLE "6:cjc128_1721"
    INDEX 01 01:32:27
  TRACK 47 AUDIO
    TITLE "0:"
    INDEX 01 01:34:36
  TRACK 48 AUDIO
    TITLE "4:cjc128_1722"
    INDEX 01 01:35:18
  TRACK 49 AUDIO
    TITLE "0:"
    INDEX 01 01:36:31
  TRACK 50 AUDIO
    TITLE "5:cjc128_1723"
    INDEX 01 01:38:51
  TRACK 51 AUDIO
    TITLE "0:"
    INDEX 01 01:40:01
  TRACK 52 AUDIO
    TITLE "6:cjc128_1724"
    INDEX 01 01:40:64
  TRACK 53 AUDIO
    TITLE "0:"
    INDEX 01 01:42:73
  TRACK 54 AUDIO
    TITLE "4:cjc128_1725"
    INDEX 01 01:43:51
  TRACK 55 AUDIO
    TITLE "0:"
    INDEX 01 01:46:31
  TRACK 56 AUDIO
    TITLE "5:cjc128_1726"
    INDEX 01 01:49:47
  TRACK 57 AUDIO
    TITLE "0:"
    INDEX 01 01:52:04
  TRACK 58 AUDIO
    TITLE "6:cjc128_1727"
    INDEX 01 01:52:69
  TRACK 59 AUDIO
    TITLE "0:"
    INDEX 01 01:54:70
  TRACK 60 AUDIO
    TITLE "4:cjc128_1728"
    INDEX 01 01:55:60
  TRACK 61 AUDIO
    TITLE "0:"
    INDEX 01 01:59:42
  TRACK 62 AUDIO
    TITLE "5:cjc128_1729"
    INDEX 01 02:04:39
  TRACK 63 AUDIO
    TITLE "0:"
    INDEX 01 02:08:70
  TRACK 64 AUDIO
    TITLE "6:cjc128_1730"
    INDEX 01 02:09:50
  TRACK 65 AUDIO
    TITLE "0:"
    INDEX 01 02:11:43
  TRACK 66 AUDIO
    TITLE "4:cjc128_1731"
    INDEX 01 02:12:38
  TRACK 67 AUDIO
    TITLE "0:"
    INDEX 01 02:15:03
  TRACK 68 AUDIO
    TITLE "5:cjc128_1732"
    INDEX 01 02:18:23
  TRACK 69 AUDIO
    TITLE "0:"
    INDEX 01 02:20:54
  TRACK 70 AUDIO
    TITLE "6:cjc128_1733"
    INDEX 01 02:21:43
  TRACK 71 AUDIO
    TITLE "0:"
    INDEX 01 02:23:48
  TRACK 72 AUDIO
    TITLE "4:cjc128_1734"
    INDEX 01 02:24:40
  TRACK 73 AUDIO
    TITLE "0:"
    INDEX 01 02:29:49
  TRACK 74 AUDIO
    TITLE "5:cjc128_1735"
    INDEX 01 02:35:26
  TRACK 75 AUDIO
    TITLE "0:"
    INDEX 01 02:40:19
